<svg width="23" height="20" viewBox="0 0 23 20" fill="none" xmlns="http://www.w3.org/2000/svg">
<path d="M17.8502 13.3973C15.8949 15.5125 13.6307 17.2988 11.2532 19.0298C7.99027 16.6438 4.93108 14.2073 2.67625 10.964C1.64318 9.47976 0.93433 7.97955 0.901022 6.2877C0.856933 4.05587 2.11914 2.06234 3.9329 1.27963C5.74227 0.498389 8.00063 0.953593 9.64137 2.56137C9.84602 2.76202 10.0545 2.96347 10.2743 3.17582C10.4001 3.29729 10.5295 3.42234 10.6641 3.55284L11.3139 4.18329L11.9404 3.52967M17.8502 13.3973L18.511 14.0082M17.8502 13.3973C19.5093 11.6025 20.8745 9.78706 21.4324 7.53905C22.0205 5.17243 21.0147 2.70663 19.1 1.55447C17.2782 0.45895 14.8648 0.732682 13.0018 2.42663M11.9404 3.52967C12.0846 3.37931 12.2119 3.24121 12.3316 3.11137C12.5614 2.86217 12.7632 2.64338 13.0018 2.42663M11.9404 3.52967L13.0018 2.42663M11.1763 19.1002L11.1834 19.0999C11.1895 19.0997 11.2037 19.0997 11.2249 19.1021C11.2452 19.1045 11.2812 19.1102 11.3277 19.1253C11.3731 19.1401 11.4439 19.169 11.5214 19.2254L11.1763 19.1002Z" stroke="black" stroke-width="1.8"/>
</svg>
